<svg version="1.2" xmlns="http://www.w3.org/2000/svg" viewBox="0 0 600 600" width="600" height="600">
	<title>5628</title>
	<style>
		.s0 { fill: #68c2cc } 
	</style>
	<g id="_Artboards_">
	</g>
	<g id="203214203C203204201[ 1">
		<g id="&lt;Group&gt;">
			<path id="&lt;Compound Path&gt;" fill-rule="evenodd" class="s0" d="m495.56 393.73h15.24v13h-15.24l14.63 13.57-8.84 9.53-15.85-14.71v21.1h-13v-29.49h-17.21v42.34h-13v-42.34h-17.21v54.11h-13v-54.11h-17.21v54.11h-13v-54.11h-17.22v42.34h-13v-42.34h-17.21v29.49h-13v-29.49h-60.93v61.51c0 3.59-2.91 6.5-6.5 6.5h-122.51c-31.98 0-58-26.02-58-58v-33.03c0-31.98 26.02-58 58-58h122.51c3.59 0 6.5 2.91 6.5 6.5v61.52h60.93v-29.5h13v29.5h17.21v-42.35h13v42.35h17.22v-54.12h13v54.12h17.21v-54.12h13v54.12h17.21v-42.35h13v42.35h17.21v-29.5h13v21.1l15.85-14.71 8.84 9.53zm-248.05-55.01h-116.01c-24.81 0-45 20.18-45 45v33.03c0 24.81 20.19 44.99 45 44.99h116.01z"/>
			<path id="&lt;Path&gt;" class="s0" d="m148.06 368.59h71.84c3.59 0 6.5-2.91 6.5-6.5 0-3.59-2.91-6.5-6.5-6.5h-71.84c-3.59 0-6.5 2.91-6.5 6.5 0 3.59 2.91 6.5 6.5 6.5z"/>
			<path id="&lt;Path&gt;" class="s0" d="m525.26 127.94c-2.11-2.9-6.18-3.54-9.08-1.44-127.05 92.32-297.79 92.32-424.84 0-2.91-2.1-6.97-1.46-9.08 1.44-2.11 2.91-1.47 6.97 1.44 9.08q15.09 10.97 31 20.3l-29.2 59.22c-1.58 3.22-0.26 7.12 2.96 8.7 0.92 0.46 1.9 0.67 2.87 0.67 2.4 0 4.7-1.33 5.83-3.62l28.88-58.59c25.5 13.8 52.35 24.51 80.15 31.99l-20.44 66.92c-1.05 3.44 0.88 7.07 4.32 8.12q0.95 0.29 1.9 0.28c2.78 0 5.36-1.8 6.21-4.6l20.64-67.56c25.52 5.92 51.77 9.16 78.44 9.61v77.08c0 3.59 2.91 6.5 6.5 6.5 3.59 0 6.5-2.91 6.5-6.5v-77.08c26.67-0.45 52.91-3.69 78.43-9.61l20.64 67.56c0.86 2.8 3.44 4.6 6.22 4.6q0.95 0 1.9-0.28c3.43-1.05 5.37-4.68 4.32-8.12l-20.45-66.92c27.8-7.48 54.66-18.19 80.15-31.99l28.88 58.59c1.13 2.29 3.44 3.62 5.84 3.62 0.96 0 1.94-0.21 2.86-0.67 3.22-1.58 4.55-5.48 2.96-8.7l-29.19-59.22q15.9-9.33 31-20.3c2.9-2.11 3.55-6.17 1.44-9.08z"/>
		</g>
	</g>
</svg>